<svg version="1.1" xmlns="http://www.w3.org/2000/svg" viewBox="0 0 841.5217391304368 448.2138979602645" width="841.5217391304368" height="448.2138979602645">
  <!-- svg-source:excalidraw -->
  
  <defs>
    <style>
      @font-face {
        font-family: "Virgil";
        src: url("https://excalidraw.com/Virgil.woff2");
      }
      @font-face {
        font-family: "Cascadia";
        src: url("https://excalidraw.com/Cascadia.woff2");
      }
    </style>
  </defs>
  <rect x="0" y="0" width="841.5217391304368" height="448.2138979602645" fill="#ffffff"></rect><g stroke-opacity="0.6" fill-opacity="0.6" stroke-linecap="round" transform="translate(325.2173913043516 34.28561464792335) rotate(0 89.56521739130449 38.04347826086958)"><path d="M-0.08 1.43 C54.37 1.74, 108.39 0.74, 180.15 1.18 M-0.23 0 C49.16 -2.16, 99.25 -1.38, 178.15 0.03 M179.97 0.1 C181.42 27.68, 179.49 54.59, 180.1 76.69 M178.79 0.04 C177.64 19.44, 178.71 38.71, 179.71 76.57 M178.71 75.54 C126.39 77.04, 75.55 76.99, 0.49 77.4 M178.97 76 C115.09 76.74, 52.62 77.34, 0.91 77.02 M-1.57 75.65 C1.4 47.41, 0.93 20.21, 0.35 -0.76 M-0.96 75.54 C-0.28 60.09, -1.01 42.16, -0.81 -0.1" stroke="#000000" stroke-width="1" fill="none"></path></g><g stroke-opacity="0.6" fill-opacity="0.6" transform="translate(365.6521739130467 55.459527691401604) rotate(0 54.5 17.5)"><text x="0" y="25" font-family="Virgil, Segoe UI Emoji" font-size="28px" fill="#000000" text-anchor="start" style="white-space: pre;" direction="ltr">Product</text></g><g stroke-opacity="0.6" fill-opacity="0.6" stroke-linecap="round" transform="translate(12.1739130434853 38.63344073487988) rotate(0 86.08695652173901 33.913043478260875)"><path d="M-0.33 -0.17 C60.43 -2.46, 124.02 -1.25, 174 1.87 M-0.78 -0.22 C62.57 -1.77, 124.43 -1.65, 172.35 -0.38 M170.26 -1.1 C172.72 16.37, 171.26 28.87, 170.56 67.63 M172.51 0.07 C171.41 15.71, 171.63 32.09, 172.79 66.84 M171.3 69.67 C104.63 67.34, 35.94 66.37, -1.74 67.44 M172.18 66.84 C121.36 69.25, 72.46 68.77, -0.4 68.08 M1.96 67.33 C2.18 50.6, 1.8 34.82, -0.47 1.35 M0.02 67.23 C-0.43 44.81, -1.18 22.23, -0.44 -0.82" stroke="#000000" stroke-width="1" fill="none"></path></g><g stroke-opacity="0.6" fill-opacity="0.6" transform="translate(40.434782608702335 54.829092908792916) rotate(0 54.5 17.5)"><text x="0" y="25" font-family="Virgil, Segoe UI Emoji" font-size="28px" fill="#000000" text-anchor="start" style="white-space: pre;" direction="ltr">Catalog</text></g><g stroke-linecap="round"><g stroke-opacity="0.6" fill-opacity="0.6" transform="translate(189.85411899314113 64.28517838719588) rotate(0 61.44892462232565 0.21717336835703804)"><path d="M-0.63 -0.05 C29.22 -1.61, 62.52 -0.41, 123.53 1.21 M0.71 0.84 C46.49 0.58, 92.14 0.42, 122.95 0.47" stroke="#000000" stroke-width="1" fill="none"></path></g><g stroke-opacity="0.6" fill-opacity="0.6" transform="translate(189.85411899314113 64.28517838719588) rotate(0 61.44892462232565 0.21717336835703804)"><path d="M94.13 10.69 C100.26 6.33, 109.95 5.08, 122.56 2 M95.47 11.58 C105.41 7.12, 115.21 3.23, 121.98 1.26" stroke="#000000" stroke-width="1" fill="none"></path></g><g stroke-opacity="0.6" fill-opacity="0.6" transform="translate(189.85411899314113 64.28517838719588) rotate(0 61.44892462232565 0.21717336835703804)"><path d="M94.13 -9.83 C100.46 -9.13, 110.15 -5.31, 122.56 2 M95.46 -8.94 C105.38 -5.71, 115.18 -1.91, 121.98 1.26" stroke="#000000" stroke-width="1" fill="none"></path></g></g><g stroke-opacity="0.6" fill-opacity="0.6" stroke-linecap="round" transform="translate(10 168.19865812618414) rotate(0 88.91304347826099 38.04347826086959)"><path d="M-1.14 -0.37 C67.65 0.2, 132.08 -1.19, 176.37 -0.63 M0.85 0.76 C65.08 -0.57, 130.6 -0.57, 178.26 0.65 M178.38 -0.3 C178.2 22.41, 178.34 47.52, 177.61 74.71 M177.52 -0.61 C178.09 22.33, 178.78 42.03, 177.98 76.9 M179.56 76.68 C127.08 72.94, 77.24 75.77, 1.74 77.87 M178.02 75.86 C129.49 76.72, 81.63 77.66, -0.81 76.53 M-1.46 76.89 C1.52 53.47, 0.47 33.28, 1.72 -1.69 M0.06 75.52 C0.41 49.6, 0.72 22.23, 0.78 -0.77" stroke="#000000" stroke-width="1" fill="none"></path></g><g stroke-opacity="0.6" fill-opacity="0.6" transform="translate(36.52173913043498 189.1769189957494) rotate(0 61.5 17.5)"><text x="0" y="25" font-family="Virgil, Segoe UI Emoji" font-size="28px" fill="#000000" text-anchor="start" style="white-space: pre;" direction="ltr">Checkout</text></g><g stroke-opacity="0.6" fill-opacity="0.6" stroke-linecap="round" transform="translate(313.478260869565 162.98126682183633) rotate(0 100 41.30434782608697)"><path d="M-0.5 1.23 C67.47 2.92, 131.3 0.47, 201.24 0.34 M0.55 0.32 C54.64 1.46, 110.53 1.54, 200.42 -0.66 M200.88 -0.96 C202.52 26.43, 201.98 54.68, 198.04 82.74 M200.14 0.76 C200.63 19.33, 199.16 39.66, 199.73 82.37 M199.18 80.82 C136.23 80.01, 73.78 83.07, -0.86 83.66 M200.35 82.75 C156.47 83.46, 112.61 84.76, 0.08 83.16 M-0.57 83.42 C-1.43 64.69, -0.54 47.01, -0.6 0.52 M-0.61 81.76 C-0.06 49.88, -0.21 18.12, 0.82 0.86" stroke="#000000" stroke-width="1" fill="none"></path></g><g stroke-opacity="0.6" fill-opacity="0.6" transform="translate(380.869565217391 185.69865812618414) rotate(0 38.5 17.5)"><text x="0" y="25" font-family="Virgil, Segoe UI Emoji" font-size="28px" fill="#000000" text-anchor="start" style="white-space: pre;" direction="ltr">Order</text></g><g stroke-opacity="0.6" fill-opacity="0.6" stroke-linecap="round" transform="translate(624.1304347826108 185.33633928560445) rotate(0 103.695652173913 40.86956521739131)"><path d="M-1.15 -1.29 C78.48 0.7, 161.27 3.08, 206.81 -0.41 M-0.18 -0.03 C50.64 1.81, 100.04 0.54, 207.56 -0.74 M208.8 -0.92 C209.52 19.06, 209.64 34.47, 208.59 81.03 M208.33 0.4 C208.02 32.11, 206.74 65.37, 207.82 80.91 M206.99 80.9 C144.15 82.68, 83.06 80.14, -0.03 82.25 M207.05 81.55 C158.35 81.76, 107.22 81.02, -0.62 82.05 M1.99 82.22 C0.45 60.22, -0.32 38.95, 0.64 -1.41 M-0.38 81.66 C-0.48 62.04, 0.24 40.92, 0.66 0.02" stroke="#000000" stroke-width="1" fill="none"></path></g><g stroke-opacity="0.6" fill-opacity="0.6" transform="translate(670.4347826086978 204.6841653725609) rotate(0 56.5 17.5)"><text x="0" y="25" font-family="Virgil, Segoe UI Emoji" font-size="28px" fill="#000000" text-anchor="start" style="white-space: pre;" direction="ltr">Payment</text></g><g stroke-linecap="round"><g stroke-opacity="0.6" fill-opacity="0.6" transform="translate(466.3405797101459 258.16242624212623) rotate(0 31.33890948625549 38.89688278808919)"><path d="M-0.83 0.52 C21.15 23.46, 40.1 51.47, 63.51 76.17 M0.93 0.51 C19.32 21.85, 37.84 45.01, 62.95 77.28" stroke="#000000" stroke-width="1" fill="none"></path></g><g stroke-opacity="0.6" fill-opacity="0.6" transform="translate(466.3405797101459 258.16242624212623) rotate(0 31.33890948625549 38.89688278808919)"><path d="M36.65 61.94 C46.37 65.13, 53.03 73.37, 63.05 76.53 M38.41 61.94 C45.6 65.82, 53.05 71.17, 62.49 77.65" stroke="#000000" stroke-width="1" fill="none"></path></g><g stroke-opacity="0.6" fill-opacity="0.6" transform="translate(466.3405797101459 258.16242624212623) rotate(0 31.33890948625549 38.89688278808919)"><path d="M52.8 49.28 C57.28 56.59, 58.71 68.93, 63.05 76.53 M54.56 49.28 C57.07 57.01, 59.8 66.05, 62.49 77.65" stroke="#000000" stroke-width="1" fill="none"></path></g></g><g stroke-linecap="round"><g transform="translate(493.35597260330815 402.2768047716248) rotate(0 42.07837765141676 -7.376343362785718)" fill-rule="evenodd"><path d="M0.88 1.22 L1.32 29.54 L3.03 31.73 L8.61 35.57 L67.07 34.28 L77.16 32.99 L80.52 29.84 L82.32 7.5 L81.64 -5.72 L78.94 -10.28 L73.52 -14.07 L53.33 -13.7 L50.53 -16.38 L49.6 -45.85 L44.09 -50.87 L36.65 -48.58 L34 -47.36 L31.84 -16.07 L28.38 -13.1 L17.83 -15.29 L16.23 -16.76 L15.22 -45.31 L11.77 -47.73 L6.09 -49.79 L1.81 -48.37 L1.39 -47.19 L1.45 -1.42" stroke="none" stroke-width="0" fill="#fd7e14" fill-rule="evenodd"></path><path d="M0.38 0.37 C0.07 3.84, -0.94 16.04, -0.75 21.63 C-0.56 27.22, -1.23 31.83, 1.53 33.91 C4.29 36, 8.65 33.96, 15.8 34.14 C22.94 34.32, 34.9 35.08, 44.41 35 C53.91 34.93, 66.44 34.44, 72.82 33.69 C79.2 32.94, 81.13 33.07, 82.67 30.49 C84.22 27.92, 82.12 23.61, 82.11 18.22 C82.11 12.83, 82.75 3.24, 82.63 -1.83 C82.51 -6.9, 82.93 -9.86, 81.39 -12.2 C79.84 -14.53, 76.54 -15.26, 73.38 -15.84 C70.21 -16.42, 66.46 -15.79, 62.42 -15.67 C58.37 -15.56, 51.48 -12.64, 49.11 -15.15 C46.75 -17.66, 48.33 -25.29, 48.24 -30.72 C48.14 -36.16, 49.74 -44.74, 48.52 -47.77 C47.31 -50.8, 43.53 -49.01, 40.93 -48.89 C38.33 -48.78, 34.23 -49.82, 32.91 -47.08 C31.6 -44.34, 33.12 -37.73, 33.04 -32.45 C32.97 -27.18, 34.05 -18.67, 32.45 -15.44 C30.85 -12.22, 26 -13.07, 23.43 -13.11 C20.87 -13.14, 18.39 -12.57, 17.05 -15.64 C15.71 -18.72, 15.5 -26.29, 15.37 -31.56 C15.24 -36.84, 17.69 -44.35, 16.29 -47.27 C14.89 -50.19, 9.46 -49.36, 6.99 -49.1 C4.51 -48.84, 2.63 -49.44, 1.42 -45.7 C0.2 -41.96, 0.03 -34.1, -0.32 -26.67 C-0.68 -19.25, -0.77 -5.44, -0.71 -1.16 M-0.89 -0.48 C-0.92 2.53, 1.23 14.24, 1.45 19.62 C1.67 25, -1.95 29.23, 0.45 31.79 C2.86 34.35, 8.22 34.38, 15.88 35 C23.55 35.61, 37.26 35.35, 46.42 35.48 C55.57 35.6, 64.58 36.25, 70.79 35.75 C77.01 35.25, 81.46 35.52, 83.71 32.48 C85.97 29.45, 84.79 22.96, 84.33 17.56 C83.88 12.16, 81.87 4.59, 80.96 0.08 C80.05 -4.42, 80.04 -6.91, 78.9 -9.49 C77.76 -12.08, 77.03 -14.25, 74.13 -15.42 C71.22 -16.59, 65.66 -16.5, 61.48 -16.5 C57.31 -16.5, 51.43 -13.11, 49.08 -15.42 C46.73 -17.74, 47.35 -25.46, 47.39 -30.41 C47.42 -35.36, 50.16 -41.75, 49.29 -45.13 C48.42 -48.51, 45.1 -50.48, 42.17 -50.68 C39.24 -50.88, 33.38 -49.36, 31.72 -46.36 C30.05 -43.36, 32.2 -37.95, 32.19 -32.67 C32.18 -27.39, 33.07 -17.73, 31.65 -14.68 C30.23 -11.62, 26.26 -14.07, 23.69 -14.34 C21.12 -14.61, 17.62 -13.19, 16.24 -16.29 C14.85 -19.4, 15.3 -28.22, 15.4 -33 C15.5 -37.77, 18.02 -42.12, 16.84 -44.93 C15.66 -47.73, 11.14 -49.79, 8.32 -49.82 C5.49 -49.85, 1.13 -48.91, -0.12 -45.1 C-1.37 -41.28, 0.73 -34.67, 0.81 -26.91 C0.9 -19.15, 0.27 -3.13, 0.38 1.45" stroke="#000000" stroke-width="1" fill="none"></path></g></g><g stroke-linecap="round"><g transform="translate(546.1767635580045 408.60073003010564) rotate(0 7.8197579401944495 3.975025008774992)" fill-rule="evenodd"><path d="M-1.47 0.66 L3.66 -2.98 L5.22 -2.9 L9.42 -2.6 L16.93 -3.54 L17.38 11.51 L6.93 11.1 L0.95 12.21 L-1.43 -0.96" stroke="none" stroke-width="0" fill="#ffff" fill-rule="evenodd"></path><path d="M0.37 -0.98 C0.55 -1.67, 1 -3.16, 1.89 -3.76 C2.78 -4.36, 4.24 -4.39, 5.73 -4.56 C7.21 -4.74, 9.19 -5.17, 10.81 -4.8 C12.44 -4.44, 14.73 -3.6, 15.48 -2.39 C16.23 -1.18, 15.26 1.13, 15.3 2.46 C15.35 3.79, 15.8 4.22, 15.76 5.59 C15.72 6.95, 15.81 9.48, 15.04 10.65 C14.28 11.83, 12.95 12.28, 11.16 12.63 C9.36 12.98, 6.12 12.96, 4.28 12.73 C2.44 12.51, 0.9 12.48, 0.13 11.3 C-0.65 10.12, -0.54 7.57, -0.39 5.64 C-0.23 3.71, 0.83 0.52, 1.05 -0.28 M-0.89 1.12 C-0.93 0.55, 0.04 -1.78, 1.05 -2.53 C2.06 -3.29, 3.55 -3.18, 5.18 -3.4 C6.81 -3.63, 9.33 -4.15, 10.81 -3.88 C12.3 -3.61, 13.2 -2.73, 14.09 -1.78 C14.98 -0.83, 15.83 0.27, 16.16 1.81 C16.49 3.36, 15.88 6.07, 16.08 7.49 C16.28 8.91, 17.91 9.62, 17.36 10.32 C16.81 11.01, 14.92 11.25, 12.78 11.65 C10.65 12.05, 6.69 13.14, 4.54 12.71 C2.39 12.29, 0.39 10.4, -0.12 9.1 C-0.63 7.81, 1.75 6.68, 1.46 4.95 C1.18 3.23, -1.71 -0.6, -1.82 -1.25" stroke="#000000" stroke-width="1" fill="none"></path></g></g><g stroke-linecap="round"><g stroke-opacity="0.6" fill-opacity="0.6" transform="translate(654.827158840958 274.90155667690885) rotate(0 -33.40820873678649 72.42708194884813)"><path d="M-0.41 -1.03 C-24.85 54.48, -46.65 106.71, -67.04 145.88 M0.22 0.65 C-14.51 30.39, -28.72 60.33, -66.53 144.97" stroke="#000000" stroke-width="1" fill="none"></path></g><g stroke-opacity="0.6" fill-opacity="0.6" transform="translate(654.827158840958 274.90155667690885) rotate(0 -33.40820873678649 72.42708194884813)"><path d="M-64.72 114.02 C-65.83 126.83, -64.02 136.68, -66.83 145.13 M-64.09 115.7 C-65.28 121.21, -66.15 127.19, -66.32 144.22" stroke="#000000" stroke-width="1" fill="none"></path></g><g stroke-opacity="0.6" fill-opacity="0.6" transform="translate(654.827158840958 274.90155667690885) rotate(0 -33.40820873678649 72.42708194884813)"><path d="M-46.01 122.45 C-53.99 132.27, -59.03 139.03, -66.83 145.13 M-45.38 124.13 C-50.42 127.97, -55.16 132.21, -66.32 144.22" stroke="#000000" stroke-width="1" fill="none"></path></g></g><g stroke-linecap="round"><g stroke-opacity="0.6" fill-opacity="0.6" transform="translate(499.45652173913186 347.1117016044449) rotate(0 -35.24119147087413 -44.88602308513913)"><path d="M-0.91 -0.08 C-25.55 -30.46, -47.02 -61.88, -69.5 -90.42 M-0.77 0.65 C-15.73 -18.38, -30.36 -38.18, -69.72 -88.93" stroke="#000000" stroke-width="1" fill="none"></path></g><g stroke-opacity="0.6" fill-opacity="0.6" transform="translate(499.45652173913186 347.1117016044449) rotate(0 -35.24119147087413 -44.88602308513913)"><path d="M-45.28 -72.96 C-54.82 -78.71, -61.36 -85.23, -70.3 -90.66 M-45.14 -72.23 C-50.66 -75.99, -56.03 -80.36, -70.52 -89.16" stroke="#000000" stroke-width="1" fill="none"></path></g><g stroke-opacity="0.6" fill-opacity="0.6" transform="translate(499.45652173913186 347.1117016044449) rotate(0 -35.24119147087413 -44.88602308513913)"><path d="M-61.53 -60.42 C-65.52 -70.58, -66.49 -81.39, -70.3 -90.66 M-61.39 -59.69 C-63.49 -66.18, -65.41 -73.22, -70.52 -89.16" stroke="#000000" stroke-width="1" fill="none"></path></g></g><g stroke-linecap="round"><g stroke-opacity="0.6" fill-opacity="0.6" transform="translate(581.8478260869579 393.8146001551697) rotate(0 21.586693175660457 -59.939091682312636)"><path d="M-0.47 -0.71 C11.19 -25.31, 20.38 -50.3, 43.64 -118.97 M0.18 -0.22 C16.09 -41.73, 31.54 -84.21, 43.64 -119.66" stroke="#000000" stroke-width="1" fill="none"></path></g><g stroke-opacity="0.6" fill-opacity="0.6" transform="translate(581.8478260869579 393.8146001551697) rotate(0 21.586693175660457 -59.939091682312636)"><path d="M43.57 -90.37 C45.01 -96.25, 44.65 -102.17, 43.2 -119.71 M44.22 -89.88 C44.45 -100.26, 44.33 -111.62, 43.2 -120.41" stroke="#000000" stroke-width="1" fill="none"></path></g><g stroke-opacity="0.6" fill-opacity="0.6" transform="translate(581.8478260869579 393.8146001551697) rotate(0 21.586693175660457 -59.939091682312636)"><path d="M24.2 -97.13 C29.74 -101.41, 33.54 -105.87, 43.2 -119.71 M24.84 -96.64 C31.85 -104.66, 38.51 -113.65, 43.2 -120.41" stroke="#000000" stroke-width="1" fill="none"></path></g></g><g stroke-linecap="round"><g stroke-opacity="0.6" fill-opacity="0.6" transform="translate(196.52173913043498 205.5899624740102) rotate(0 145.77966727136163 93.57663064006192)"><path d="M-0.58 -0.12 C80.94 51.07, 158.14 101.59, 291.97 187.27 M0.31 0.12 C113.67 73.4, 227.47 146.02, 292.13 186.11" stroke="#000000" stroke-width="1" fill="none"></path></g><g stroke-opacity="0.6" fill-opacity="0.6" transform="translate(196.52173913043498 205.5899624740102) rotate(0 145.77966727136163 93.57663064006192)"><path d="M261.92 179.64 C272.22 181.48, 276.93 183.23, 291.43 187.86 M263.27 180 C275.04 182.23, 285.9 184.6, 291.69 186.1" stroke="#000000" stroke-width="1" fill="none"></path></g><g stroke-opacity="0.6" fill-opacity="0.6" transform="translate(196.52173913043498 205.5899624740102) rotate(0 145.77966727136163 93.57663064006192)"><path d="M272.83 162.26 C280.27 168.78, 282.01 175.24, 291.43 187.86 M274.18 162.61 C281.54 171.59, 288.14 180.75, 291.69 186.1" stroke="#000000" stroke-width="1" fill="none"></path></g></g><g stroke-linecap="round" transform="translate(660.42609639885 10) rotate(0 45.98420092678634 19.91238675986044)"><path d="M44.54 -0.12 L90.12 18.5 L44.29 41.29 L0.37 18.49" stroke="none" stroke-width="0" fill="#c13b3c" fill-rule="evenodd"></path><path d="M45.52 1.58 C59.29 6.89, 73.74 9.76, 92.31 18.33 M45.58 0.76 C59.15 5.29, 72.18 10.63, 91.87 20.17 M90.95 19.45 C75.71 27.43, 55.33 35.73, 47.41 38.58 M92.37 20.01 C82.31 24.73, 70.72 29.19, 45.53 39.34 M45.69 41.65 C33.28 32.56, 17.68 25.89, -1.41 20.59 M45.24 39.93 C30.1 33.49, 13.65 25.34, 0.52 20.82 M-0.78 21.44 C12.44 16.13, 25.25 8.49, 47.32 1.07 M0.36 19.91 C13.38 15.49, 24.72 9.81, 45.86 0.3" stroke="#c13b3c" stroke-width="2" fill="none"></path></g><g stroke-linecap="round" transform="translate(661.4181202775817 45.9150808198786) rotate(0 45.98420092678634 19.91238675986044)"><path d="M45.88 -1.85 L90.47 18.29 L47.47 40.2 L-1.51 21.23" stroke="none" stroke-width="0" fill="#c13b3c" fill-rule="evenodd"></path><path d="M47.58 0.4 C58.73 7.06, 67.62 10.6, 90.3 19.81 M46.76 -0.26 C61.21 6.29, 76.08 13.44, 92.14 20.88 M91.42 21.61 C78.37 24.65, 65.5 32.79, 44.75 38.47 M91.98 20.9 C75.88 27.16, 59.55 33.67, 45.51 39.96 M47.82 41.46 C33.37 34.94, 20.71 27.82, 0.59 20.96 M46.11 39.75 C37.11 34.92, 26.49 31.91, 0.82 19.61 M1.44 20.39 C14.25 15.8, 24.66 10.34, 47.07 -0.65 M-0.09 20.95 C11.5 15.19, 21.82 10.43, 46.3 -0.73" stroke="#c13b3c" stroke-width="2" fill="none"></path></g><g stroke-linecap="round" transform="translate(660.6991985926361 27.3170876038256) rotate(0 45.98420092678634 19.91238675986044)"><path d="M44.15 -1.5 L90.25 21.47 L46.37 38.32 L1.23 21.31" stroke="none" stroke-width="0" fill="#c13b3c" fill-rule="evenodd"></path><path d="M46.4 1.12 C60.38 3.44, 71.4 8.89, 91.77 20.67 M45.74 -0.25 C61.81 6.1, 78.75 14.15, 92.85 19.93 M93.58 19.99 C79.8 25.27, 70.99 28.24, 44.64 40.87 M92.87 20.09 C77.85 26.07, 63.21 31.75, 46.14 39.48 M47.63 39.21 C37.09 35.13, 25.83 32.73, 0.96 18.08 M45.92 40.33 C31.27 32.94, 17.92 28.3, -0.39 19.79 M0.39 21.48 C16.33 12.18, 31.51 7.65, 45.35 -1.37 M0.95 20.85 C13.88 14.49, 27.73 8.2, 45.27 -0.06" stroke="#c13b3c" stroke-width="2" fill="none"></path></g><g stroke-linecap="round"><g transform="translate(728.8600334210278 24.887836630669085) rotate(0 -5.905941383133268 5.186341762007714)" fill-rule="evenodd"><path d="M-12.14 5.35 C-12.14 5.35, -12.14 5.35, -12.14 5.35 M-12.14 5.35 C-12.14 5.35, -12.14 5.35, -12.14 5.35 M-3.39 8.77 C-1.75 6.56, -1.5 4.36, 2.33 2.32 M-4.46 7.91 C-3.24 7.05, -1.88 5.73, 2.08 1.66 M-12.24 4.93 C-12.24 4.93, -12.24 4.93, -12.24 4.93 M-12.24 4.93 C-12.24 4.93, -12.24 4.93, -12.24 4.93 M2.11 7.28 C1.54 5.43, -1.24 3.97, -3.3 1.97 M2.62 7.02 C0.42 5.74, -1.9 3.48, -4.16 1.68" stroke="#9a2e20" stroke-width="1" fill="none"></path><path d="M0.56 0.94 C-0.76 2.95, -0.76 5.46, 0.34 10.66 M-0.12 -0.29 C-0.28 2.55, 0.16 5.65, -0.03 9.79 M0 9.48 C-2.58 9.86, -6.76 6.84, -11.3 5.27 M0.06 10.07 C-4.11 8.2, -8.46 6.93, -12.2 4.54 M-12.37 5.45 C-9.31 2.67, -4.83 2.75, -1.25 0.16 M-11.64 4.83 C-9.78 4.35, -6.09 2.61, -0.14 0.18 M0 0 C0 0, 0 0, 0 0 M0 0 C0 0, 0 0, 0 0" stroke="#9a2e20" stroke-width="2" fill="none"></path></g></g><g stroke-linecap="round"><g transform="translate(728.9249357129647 25.514780743643797) rotate(0 5.552940094894893 4.4182990660310395)" fill-rule="evenodd"><path d="M0 0 C0 0, 0 0, 0 0 M0 0 C0 0, 0 0, 0 0 M1.93 11.49 C3.81 7.28, 5.7 5.72, 8.88 2.01 M0.97 10.26 C4.08 7.59, 6.66 5.11, 8.14 2.87 M-0.13 9.3 C-0.13 9.3, -0.13 9.3, -0.13 9.3 M-0.13 9.3 C-0.13 9.3, -0.13 9.3, -0.13 9.3 M7.98 6.3 C5.6 3.32, 3.64 3.18, 1.09 -0.35 M7.69 5.72 C6.3 3.65, 3.7 1.69, 0.77 -1.11" stroke="#571f1e" stroke-width="1" fill="none"></path><path d="M0.88 -0.78 C0.18 2.78, -0.07 7.45, 0.55 9.02 M-0.27 -0.33 C-0.07 3.62, 0.39 7.05, -0.27 9.18 M-0.57 9.78 C3.93 7.38, 5.34 7.53, 11.5 5.27 M-0.01 9.38 C3.09 7.71, 6.9 6.4, 10.8 4.68 M11.67 4.12 C6.03 3.24, 3.04 -0.18, 0.15 -0.94 M11.08 4.32 C8.18 3.86, 4.08 1.74, 0.17 -0.24 M0 0 C0 0, 0 0, 0 0 M0 0 C0 0, 0 0, 0 0" stroke="#571f1e" stroke-width="2" fill="none"></path></g></g><g stroke-linecap="round"><g transform="translate(702.2203941361822 18.34805905623935) rotate(0 5.573221085610385 4.351780506816951)" fill-rule="evenodd"><path d="M0.59 -0.34 L2.92 1.32 L-2.42 6.12 L4.2 5.96 L5.94 8.57 L8.88 4.01 L14.46 4.54 L7.65 1.77 L9.97 0.82 L4.6 -0.63 L1.49 1.2" stroke="none" stroke-width="0" fill="#ffff" fill-rule="evenodd"></path><path d="M-0.26 0.05 C0.28 0.8, 1.17 1.86, 1.51 2.88 M-0.11 -0.02 C0.47 0.87, 0.88 1.37, 1.56 2.6 M1.8 3.03 C-0.68 3.02, -2.01 4.22, -3.32 4.7 M1.62 2.51 C-0.52 3.48, -2.5 3.97, -3.58 4.94 M-3.88 4.24 C-0.9 5.23, 0.74 5.25, 2.39 5.4 M-3.78 4.86 C-1.39 4.79, 0.15 5.19, 2.76 5.57 M2.67 5.63 C3.87 6.41, 4.04 7.82, 5.29 9.17 M3 5.3 C3.87 6.7, 4.68 8.19, 4.96 9.02 M5.41 9.51 C6.1 7.5, 6.64 6.06, 7.02 5.15 M5.12 9.42 C5.76 7.63, 6.74 6.03, 7.22 5.33 M8 5.21 C8.96 4.7, 11.82 5.5, 13.87 5.28 M7.1 5.27 C9.25 5.23, 11.57 5.07, 14.5 4.49 M15.03 4.01 C13.13 4.47, 11.66 4.37, 7.93 2.57 M14.67 4.34 C12.9 4.02, 11.33 4.17, 7.81 2.65 M8.16 2.55 C8.33 1.49, 9.62 0.88, 10.3 -0.76 M7.92 2.96 C8.37 2.07, 8.84 1.37, 9.98 -0.57 M9.84 -0.36 C9.26 -0.34, 8.19 -0.33, 4.57 1.32 M10.4 -0.81 C8.54 0.03, 6.87 0.85, 5.2 1.18 M5.12 1.55 C4.25 0.52, 2.62 1.16, -0.52 0.52 M4.97 1.12 C4.18 1.14, 3.04 0.6, -0.02 0.04 M0 0 C0 0, 0 0, 0 0 M0 0 C0 0, 0 0, 0 0" stroke="#ffff" stroke-width="2" fill="none"></path></g></g><g stroke-linecap="round" transform="translate(676.4994567731019 27.453611890664973) rotate(0 9.696466596105893 3.0256600291790647)"><path d="M7.43 0.78 C9.41 0.7, 12.58 1, 14.57 1.12 C16.55 1.23, 18.51 0.89, 19.34 1.46 C20.16 2.03, 20.36 3.96, 19.53 4.54 C18.71 5.12, 16.27 4.62, 14.39 4.93 C12.51 5.24, 10.26 6.2, 8.24 6.37 C6.23 6.55, 3.53 6.51, 2.3 5.96 C1.07 5.41, 0.79 3.9, 0.85 3.07 C0.92 2.24, 1.02 1.62, 2.67 0.99 C4.32 0.36, 9.06 -0.44, 10.77 -0.72 C12.48 -1, 13.12 -0.71, 12.93 -0.68 M14.1 1.18 C16.04 1.43, 17.94 0.49, 18.74 0.8 C19.54 1.11, 19.53 2.31, 18.88 3.04 C18.24 3.78, 16.23 4.51, 14.87 5.2 C13.5 5.89, 12.5 7.15, 10.71 7.16 C8.93 7.17, 5.69 6.05, 4.15 5.25 C2.61 4.46, 2.01 3.04, 1.49 2.4 C0.98 1.76, 0.35 1.88, 1.06 1.42 C1.76 0.96, 3.57 -0.12, 5.73 -0.37 C7.89 -0.62, 12.58 -0.33, 14.02 -0.11 C15.45 0.12, 14.3 0.88, 14.35 0.98" stroke="none" stroke-width="0" fill="#ffffff"></path><path d="M6.34 -0.16 C8.24 -0.54, 11.28 -0.3, 13.14 -0.14 C15 0.01, 16.58 0.2, 17.49 0.76 C18.41 1.33, 18.78 2.36, 18.63 3.24 C18.48 4.13, 17.99 5.72, 16.6 6.09 C15.21 6.46, 12.48 5.62, 10.3 5.47 C8.11 5.32, 5.01 5.48, 3.48 5.2 C1.95 4.91, 1.58 4.29, 1.09 3.75 C0.6 3.22, -0.53 2.7, 0.52 1.99 C1.58 1.29, 6.33 -0.25, 7.43 -0.48 C8.52 -0.7, 7.14 0.43, 7.08 0.64 M9.73 -0.08 C11.36 -0.26, 13.63 -0.36, 15.25 -0.01 C16.87 0.33, 19.23 1.27, 19.46 2 C19.69 2.72, 17.49 3.47, 16.63 4.32 C15.78 5.17, 16.13 6.78, 14.34 7.1 C12.54 7.41, 8.19 6.81, 5.88 6.2 C3.57 5.6, 1.36 3.97, 0.48 3.47 C-0.4 2.97, 0.33 3.64, 0.6 3.21 C0.86 2.78, 0.72 1.39, 2.06 0.89 C3.39 0.38, 7.33 0.17, 8.6 0.16 C9.86 0.15, 9.56 0.98, 9.63 0.82" stroke="#ffff" stroke-width="2" fill="none"></path></g><g stroke-linecap="round"><g transform="translate(728.4035219098823 25.22682346201421) rotate(0 -5.593188010534959 5.03221135195254)" fill-rule="evenodd"><path d="M-1.51 1.23 L1.31 10.82 L-12.99 4.71 L-0.75 -1.24" stroke="none" stroke-width="0" fill="#9a2e20" fill-rule="evenodd"></path><path d="M-0.84 -0.1 C0.26 4.55, -0.5 8.7, -0.26 9.83 M0.09 0.45 C-0.11 2.15, -0.33 4.75, 0.41 10.07 M-0.81 9.2 C-2.38 9.02, -5.58 7.67, -10.8 5.27 M-0.31 10.16 C-3.8 7.93, -7.26 7.67, -11.45 4.96 M-11.59 5.79 C-9.34 3.74, -5.22 2.05, -0.1 0.66 M-11.44 4.9 C-9.09 3.99, -6.23 3, 0.13 0.48 M0 0 C0 0, 0 0, 0 0 M0 0 C0 0, 0 0, 0 0" stroke="#9a2e20" stroke-width="2" fill="none"></path></g></g><g stroke-linecap="round"><g transform="translate(729.0126409977775 25.566773478812678) rotate(0 5.5773581232119795 4.715201726264837)" fill-rule="evenodd"><path d="M1.23 1.31 L0.74 8.41 L10.95 4.03 L-1.24 -0.24" stroke="none" stroke-width="0" fill="#571f1e" fill-rule="evenodd"></path><path d="M-0.09 0.32 C0.56 1.65, 0.73 3.84, -0.23 8.88 M0.42 -0.03 C-0.28 1.92, -0.14 4.69, 0 9.2 M-0.83 10.06 C3.83 8.45, 7.49 7.54, 11.5 4.76 M0.08 9.2 C2.79 8.01, 7.3 7.24, 11.21 4.92 M11.99 3.59 C8.77 2.69, 5.93 2.36, 0.63 -0.63 M11.15 4.65 C8.96 3.55, 6.66 2.83, 0.46 0.37 M0 0 C0 0, 0 0, 0 0 M0 0 C0 0, 0 0, 0 0" stroke="#571f1e" stroke-width="2" fill="none"></path></g></g><g stroke-linecap="round"><g transform="translate(709.0164062451695 42.74378255465757) rotate(0 -3.289483362877945 -3.714698985280279)" fill-rule="evenodd"><path d="M1.31 0.74 L-13.46 -5.48 L5.67 -8.94 L-0.24 1.59" stroke="none" stroke-width="0" fill="#ffffff" fill-rule="evenodd"></path><path d="M0.45 0.78 C-4.46 -0.59, -8.2 -3.53, -13.22 -5.99 M-0.05 -0.39 C-3.96 -1.53, -6.68 -2.81, -12.75 -4.84 M-11.45 -4.87 C-4.68 -5.88, 3.27 -6.72, 6.4 -7.8 M-12.77 -5.95 C-7.82 -4.87, -2.13 -6.7, 6.64 -8.21 M5.46 -7.58 C4.2 -5.8, 3.42 -3.63, -0.51 -0.74 M6.32 -7.57 C4.03 -4.66, 2.07 -1.94, 0.3 -0.24 M0 0 C0 0, 0 0, 0 0 M0 0 C0 0, 0 0, 0 0" stroke="#ffffff" stroke-width="2" fill="none"></path></g></g><g stroke-linecap="round"><g transform="translate(661.1841610694883 31.640234541129985) rotate(0 45.85082803945215 14.64742686884351)" fill-rule="evenodd"><path d="M-1.62 -1.19 L1.9 12.02 L46.98 31.04 L90.27 10.31 L90.35 -0.76 L47.45 18.54 L0.2 -0.85" stroke="none" stroke-width="0" fill="#922b1c" fill-rule="evenodd"></path><path d="M0.64 -0.46 C0.92 2.09, -0.1 4.13, -0.36 10.91 M-0.32 -0.28 C0.08 3.94, 0.36 6.73, 0.59 11.41 M0.59 11.82 C11.21 17.34, 22.28 20.26, 46.22 30.07 M-0.54 10.86 C12.9 17.02, 23.22 21.46, 45.8 30.32 M46.58 29.49 C61.48 24.79, 77.32 17.4, 90.51 12.25 M46.6 30.63 C64.56 23.75, 82.02 16.59, 91.52 11.88 M92.03 11.62 C91.97 8.29, 93.09 3.2, 92.73 -0.26 M91.47 10.79 C91.63 7.9, 92.27 3.32, 92.48 0.27 M91.38 -1.34 C76.21 7.99, 62.34 14.09, 45.84 21.29 M91.59 -0.46 C82.17 4.11, 71.96 9.24, 46.87 19.47 M47.65 17.51 C36.24 14.41, 21.65 8.14, -1.09 0.36 M46.17 19.23 C32.4 13.27, 19.84 8.82, 0.65 -0.94 M0 0 C0 0, 0 0, 0 0 M0 0 C0 0, 0 0, 0 0" stroke="#922b1c" stroke-width="2" fill="none"></path></g></g><g stroke-linecap="round"><g transform="translate(661.1951366747098 48.09869213125211) rotate(0 46.038720608014046 15.699707706107304)" fill-rule="evenodd"><path d="M-1.19 1.48 L1.42 11.67 L46.35 29.3 L91.09 9.43 L91.47 1.44 L44.99 19.66 L-0.85 0.74" stroke="none" stroke-width="0" fill="#922b1c" fill-rule="evenodd"></path><path d="M-0.46 0.84 C-0.13 2.93, -0.35 5.61, 0.31 11.21 M-0.28 -0.15 C0.6 4.28, 0.07 8.73, 0.81 10.68 M1.23 11.04 C12.99 15.8, 21.82 20.16, 45.38 30.05 M0.27 11.93 C15.56 17.42, 29.36 23.47, 45.62 31.32 M44.8 31.23 C62.27 25.08, 77.3 15.7, 93.02 12.85 M45.94 31.74 C58.48 26.47, 70.81 20.08, 92.65 11.75 M92.4 11.11 C93.18 9.15, 92.13 5.76, 91.97 0.24 M91.57 10.73 C92.44 8.76, 91.63 6.43, 92.5 0.11 M90.9 -0.34 C82.15 6.08, 70.12 9.41, 47.74 17.99 M91.78 0.46 C79.08 5.91, 66.93 11.48, 45.92 18.95 M43.96 21.16 C33.52 13.42, 20.33 8.78, 0.36 -0.34 M45.68 18.99 C29.66 13.13, 15.59 7.41, -0.94 -0.2 M0 0 C0 0, 0 0, 0 0 M0 0 C0 0, 0 0, 0 0" stroke="#922b1c" stroke-width="2" fill="none"></path></g></g><g stroke-linecap="round"><g transform="translate(661.631470383245 66.34954913149014) rotate(0 46.60064323096731 15.036364925362903)" fill-rule="evenodd"><path d="M1.48 1 L1.08 9.78 L44.66 29.59 L90.12 10.15 L93.67 -1.02 L46.11 18.61 L0.74 -1.76" stroke="none" stroke-width="0" fill="#922b1c" fill-rule="evenodd"></path><path d="M0.74 -0.26 C-0.04 2.7, -0.35 6.41, 0.59 10.62 M-0.13 0.39 C0.07 2.64, 0.34 6.07, 0.12 9.43 M0.44 11.57 C16.8 16.85, 32.71 23.23, 45.41 30.76 M1.33 10.57 C12.12 15.56, 24.09 20.13, 46.68 30.97 M46.6 30.34 C56.65 25.81, 63.44 23.84, 93.55 10.03 M47.11 30.68 C59.77 25.77, 71.25 20.35, 92.44 10.48 M91.8 11.84 C92.89 8.26, 92.58 5.6, 92.46 -0.9 M91.44 11.2 C92.18 7.19, 92.48 4.75, 92.33 -0.38 M91.89 1.49 C80.69 6.14, 66.3 12.32, 44.44 19.02 M92.69 -0.31 C79.13 6.02, 65.55 11.36, 45.4 19.03 M47.61 18.98 C27.69 10.08, 11.42 5.29, -0.34 0.59 M45.44 18.46 C28.91 12.24, 12.7 4.08, -0.2 0.26 M0 0 C0 0, 0 0, 0 0 M0 0 C0 0, 0 0, 0 0" stroke="#922b1c" stroke-width="2" fill="none"></path></g></g><g stroke-linecap="round"><g stroke-opacity="0.6" fill-opacity="0.6" transform="translate(516.5217391304341 156.45952769140163) rotate(0 71.42338259220514 -49.305658265057474)"><path d="M1.33 1.17 C34.45 -26.33, 72.82 -51.33, 142.4 -99.78 M0.44 0.51 C48.44 -32.82, 97.8 -66.05, 141.33 -98.49" stroke="#000000" stroke-width="1" fill="none"></path></g><g stroke-opacity="0.6" fill-opacity="0.6" transform="translate(516.5217391304341 156.45952769140163) rotate(0 71.42338259220514 -49.305658265057474)"><path d="M125.85 -72.47 C126.89 -81.11, 132.89 -86.84, 142.87 -99.58 M124.97 -73.13 C129.55 -82.06, 136.17 -89.85, 141.79 -98.28" stroke="#000000" stroke-width="1" fill="none"></path></g><g stroke-opacity="0.6" fill-opacity="0.6" transform="translate(516.5217391304341 156.45952769140163) rotate(0 71.42338259220514 -49.305658265057474)"><path d="M113.81 -89.08 C118.05 -93.36, 127.2 -94.75, 142.87 -99.58 M112.92 -89.75 C121.5 -92.85, 132.28 -94.92, 141.79 -98.28" stroke="#000000" stroke-width="1" fill="none"></path></g></g><g stroke-linecap="round"><g stroke-opacity="0.6" fill-opacity="0.6" transform="translate(189.52898550724422 163.05373058995227) rotate(0 66.66727011169587 -26.53430232871324)"><path d="M1.9 -0.95 C53.78 -18.48, 103.42 -41.23, 133.93 -52.32 M-0.59 0.24 C48.61 -19.76, 96.9 -39.39, 133.22 -53.31" stroke="#000000" stroke-width="1" fill="none"></path></g><g stroke-opacity="0.6" fill-opacity="0.6" transform="translate(189.52898550724422 163.05373058995227) rotate(0 66.66727011169587 -26.53430232871324)"><path d="M112.6 -34.44 C121 -39.44, 127.46 -49.55, 132.98 -53.13 M110.11 -33.25 C118.61 -41.06, 126.27 -48.8, 132.28 -54.12" stroke="#000000" stroke-width="1" fill="none"></path></g><g stroke-opacity="0.6" fill-opacity="0.6" transform="translate(189.52898550724422 163.05373058995227) rotate(0 66.66727011169587 -26.53430232871324)"><path d="M105.13 -53.56 C116.24 -51.16, 125.6 -53.87, 132.98 -53.13 M102.64 -52.36 C113.82 -53.24, 124.2 -54.02, 132.28 -54.12" stroke="#000000" stroke-width="1" fill="none"></path></g></g></svg>