<svg version="1.1" xmlns="http://www.w3.org/2000/svg" viewBox="0 0 766.5217391304368 401.24213638705373" width="766.5217391304368" height="401.24213638705373">
  <!-- svg-source:excalidraw -->
  
  <defs>
    <style>
      @font-face {
        font-family: "Virgil";
        src: url("https://excalidraw.com/Virgil.woff2");
      }
      @font-face {
        font-family: "Cascadia";
        src: url("https://excalidraw.com/Cascadia.woff2");
      }
    </style>
  </defs>
  <rect x="0" y="0" width="766.5217391304368" height="401.24213638705373" fill="#ffffff"></rect><g stroke-opacity="0.6" fill-opacity="0.6" stroke-linecap="round" transform="translate(325.2173913043516 34.28561464792335) rotate(0 89.56521739130449 38.04347826086958)"><path d="M-0.08 1.43 C54.37 1.74, 108.39 0.74, 180.15 1.18 M-0.23 0 C49.16 -2.16, 99.25 -1.38, 178.15 0.03 M179.97 0.1 C181.42 27.68, 179.49 54.59, 180.1 76.69 M178.79 0.04 C177.64 19.44, 178.71 38.71, 179.71 76.57 M178.71 75.54 C126.39 77.04, 75.55 76.99, 0.49 77.4 M178.97 76 C115.09 76.74, 52.62 77.34, 0.91 77.02 M-1.57 75.65 C1.4 47.41, 0.93 20.21, 0.35 -0.76 M-0.96 75.54 C-0.28 60.09, -1.01 42.16, -0.81 -0.1" stroke="#000000" stroke-width="1" fill="none"></path></g><g stroke-opacity="0.6" fill-opacity="0.6" transform="translate(365.6521739130467 55.459527691401604) rotate(0 54.5 17.5)"><text x="0" y="25" font-family="Virgil, Segoe UI Emoji" font-size="28px" fill="#000000" text-anchor="start" style="white-space: pre;" direction="ltr">Product</text></g><g stroke-opacity="0.6" fill-opacity="0.6" stroke-linecap="round" transform="translate(12.1739130434853 38.63344073487988) rotate(0 86.08695652173901 33.913043478260875)"><path d="M-0.33 -0.17 C60.43 -2.46, 124.02 -1.25, 174 1.87 M-0.78 -0.22 C62.57 -1.77, 124.43 -1.65, 172.35 -0.38 M170.26 -1.1 C172.72 16.37, 171.26 28.87, 170.56 67.63 M172.51 0.07 C171.41 15.71, 171.63 32.09, 172.79 66.84 M171.3 69.67 C104.63 67.34, 35.94 66.37, -1.74 67.44 M172.18 66.84 C121.36 69.25, 72.46 68.77, -0.4 68.08 M1.96 67.33 C2.18 50.6, 1.8 34.82, -0.47 1.35 M0.02 67.23 C-0.43 44.81, -1.18 22.23, -0.44 -0.82" stroke="#000000" stroke-width="1" fill="none"></path></g><g stroke-opacity="0.6" fill-opacity="0.6" transform="translate(40.434782608702335 54.829092908792916) rotate(0 54.5 17.5)"><text x="0" y="25" font-family="Virgil, Segoe UI Emoji" font-size="28px" fill="#000000" text-anchor="start" style="white-space: pre;" direction="ltr">Catalog</text></g><g stroke-linecap="round"><g stroke-opacity="0.6" fill-opacity="0.6" transform="translate(189.85411899314113 64.28517838719588) rotate(0 61.44892462232565 0.21717336835703804)"><path d="M-0.63 -0.05 C29.22 -1.61, 62.52 -0.41, 123.53 1.21 M0.71 0.84 C46.49 0.58, 92.14 0.42, 122.95 0.47" stroke="#000000" stroke-width="1" fill="none"></path></g><g stroke-opacity="0.6" fill-opacity="0.6" transform="translate(189.85411899314113 64.28517838719588) rotate(0 61.44892462232565 0.21717336835703804)"><path d="M94.13 10.69 C100.26 6.33, 109.95 5.08, 122.56 2 M95.47 11.58 C105.41 7.12, 115.21 3.23, 121.98 1.26" stroke="#000000" stroke-width="1" fill="none"></path></g><g stroke-opacity="0.6" fill-opacity="0.6" transform="translate(189.85411899314113 64.28517838719588) rotate(0 61.44892462232565 0.21717336835703804)"><path d="M94.13 -9.83 C100.46 -9.13, 110.15 -5.31, 122.56 2 M95.46 -8.94 C105.38 -5.71, 115.18 -1.91, 121.98 1.26" stroke="#000000" stroke-width="1" fill="none"></path></g></g><g stroke-opacity="0.6" fill-opacity="0.6" stroke-linecap="round" transform="translate(10 168.19865812618414) rotate(0 88.91304347826099 38.04347826086959)"><path d="M-1.14 -0.37 C67.65 0.2, 132.08 -1.19, 176.37 -0.63 M0.85 0.76 C65.08 -0.57, 130.6 -0.57, 178.26 0.65 M178.38 -0.3 C178.2 22.41, 178.34 47.52, 177.61 74.71 M177.52 -0.61 C178.09 22.33, 178.78 42.03, 177.98 76.9 M179.56 76.68 C127.08 72.94, 77.24 75.77, 1.74 77.87 M178.02 75.86 C129.49 76.72, 81.63 77.66, -0.81 76.53 M-1.46 76.89 C1.52 53.47, 0.47 33.28, 1.72 -1.69 M0.06 75.52 C0.41 49.6, 0.72 22.23, 0.78 -0.77" stroke="#000000" stroke-width="1" fill="none"></path></g><g stroke-opacity="0.6" fill-opacity="0.6" transform="translate(36.52173913043498 189.1769189957494) rotate(0 61.5 17.5)"><text x="0" y="25" font-family="Virgil, Segoe UI Emoji" font-size="28px" fill="#000000" text-anchor="start" style="white-space: pre;" direction="ltr">Checkout</text></g><g stroke-opacity="0.6" fill-opacity="0.6" stroke-linecap="round" transform="translate(313.478260869565 162.98126682183633) rotate(0 100 41.30434782608697)"><path d="M-0.5 1.23 C67.47 2.92, 131.3 0.47, 201.24 0.34 M0.55 0.32 C54.64 1.46, 110.53 1.54, 200.42 -0.66 M200.88 -0.96 C202.52 26.43, 201.98 54.68, 198.04 82.74 M200.14 0.76 C200.63 19.33, 199.16 39.66, 199.73 82.37 M199.18 80.82 C136.23 80.01, 73.78 83.07, -0.86 83.66 M200.35 82.75 C156.47 83.46, 112.61 84.76, 0.08 83.16 M-0.57 83.42 C-1.43 64.69, -0.54 47.01, -0.6 0.52 M-0.61 81.76 C-0.06 49.88, -0.21 18.12, 0.82 0.86" stroke="#000000" stroke-width="1" fill="none"></path></g><g stroke-opacity="0.6" fill-opacity="0.6" transform="translate(380.869565217391 185.69865812618414) rotate(0 38.5 17.5)"><text x="0" y="25" font-family="Virgil, Segoe UI Emoji" font-size="28px" fill="#000000" text-anchor="start" style="white-space: pre;" direction="ltr">Order</text></g><g stroke-opacity="0.6" fill-opacity="0.6" stroke-linecap="round" transform="translate(549.1304347826108 309.5030059522711) rotate(0 103.695652173913 40.86956521739131)"><path d="M-1.15 -1.29 C78.48 0.7, 161.27 3.08, 206.81 -0.41 M-0.18 -0.03 C50.64 1.81, 100.04 0.54, 207.56 -0.74 M208.8 -0.92 C209.52 19.06, 209.64 34.47, 208.59 81.03 M208.33 0.4 C208.02 32.11, 206.74 65.37, 207.82 80.91 M206.99 80.9 C144.15 82.68, 83.06 80.14, -0.03 82.25 M207.05 81.55 C158.35 81.76, 107.22 81.02, -0.62 82.05 M1.99 82.22 C0.45 60.22, -0.32 38.95, 0.64 -1.41 M-0.38 81.66 C-0.48 62.04, 0.24 40.92, 0.66 0.02" stroke="#000000" stroke-width="1" fill="none"></path></g><g stroke-opacity="0.6" fill-opacity="0.6" transform="translate(600.4347826086978 331.3508320392276) rotate(0 56.5 17.5)"><text x="0" y="25" font-family="Virgil, Segoe UI Emoji" font-size="28px" fill="#000000" text-anchor="start" style="white-space: pre;" direction="ltr">Payment</text></g><g stroke-linecap="round"><g stroke-opacity="0.6" fill-opacity="0.6" transform="translate(522.1739130434798 177.3290929087929) rotate(0 70.50557615292155 -2.0726527672909185)"><path d="M-0.83 0.52 C46.55 -2.77, 90.86 -0.94, 141.85 -4.66 M0.93 0.51 C42 -2.49, 83.37 -2.91, 141.28 -3.55" stroke="#000000" stroke-width="1" fill="none"></path></g><g stroke-opacity="0.6" fill-opacity="0.6" transform="translate(522.1739130434798 177.3290929087929) rotate(0 70.50557615292155 -2.0726527672909185)"><path d="M112.38 7.58 C122.95 2.19, 130.45 1.86, 141.39 -4.3 M114.15 7.57 C122.04 3.71, 130.24 1.34, 140.82 -3.19" stroke="#000000" stroke-width="1" fill="none"></path></g><g stroke-opacity="0.6" fill-opacity="0.6" transform="translate(522.1739130434798 177.3290929087929) rotate(0 70.50557615292155 -2.0726527672909185)"><path d="M112.13 -12.94 C122.77 -11.68, 130.36 -5.37, 141.39 -4.3 M113.9 -12.95 C121.9 -10.82, 130.18 -7.21, 140.82 -3.19" stroke="#000000" stroke-width="1" fill="none"></path></g></g><g stroke-linecap="round"><g transform="translate(668.5769754447692 376.5346899806033) rotate(0 41.02404147662264 -196.63422857176403)" fill-rule="evenodd"><path d="M-0.18 -188.04 L0.27 -159.71 L1.97 -157.52 L7.55 -153.69 L66.02 -154.98 L76.1 -156.26 L79.47 -159.42 L81.27 -181.76 L80.59 -194.98 L77.88 -199.53 L72.47 -203.33 L52.28 -202.96 L49.47 -205.63 L48.55 -235.1 L43.03 -240.12 L35.6 -237.84 L32.95 -236.62 L30.79 -205.33 L27.32 -202.36 L16.77 -204.54 L15.18 -206.02 L14.16 -234.57 L10.71 -236.99 L5.04 -239.04 L0.76 -237.63 L0.34 -236.45 L0.39 -190.68" stroke="none" stroke-width="0" fill="#fd7e14" fill-rule="evenodd"></path><path d="M-0.68 -188.88 C-0.98 -185.42, -2 -173.21, -1.8 -167.62 C-1.61 -162.03, -2.28 -157.43, 0.48 -155.35 C3.23 -153.26, 7.6 -155.3, 14.74 -155.12 C21.89 -154.93, 33.85 -154.18, 43.35 -154.25 C52.86 -154.33, 65.39 -154.82, 71.76 -155.57 C78.14 -156.32, 80.07 -156.19, 81.62 -158.76 C83.17 -161.34, 81.07 -165.65, 81.06 -171.04 C81.05 -176.42, 81.7 -186.01, 81.57 -191.08 C81.45 -196.15, 81.87 -199.12, 80.33 -201.45 C78.79 -203.79, 75.48 -204.52, 72.32 -205.1 C69.16 -205.68, 65.4 -205.05, 61.36 -204.93 C57.32 -204.82, 50.42 -201.9, 48.06 -204.41 C45.7 -206.92, 47.28 -214.54, 47.18 -219.98 C47.08 -225.42, 48.69 -234, 47.47 -237.03 C46.25 -240.06, 42.48 -238.27, 39.88 -238.15 C37.27 -238.04, 33.17 -239.08, 31.86 -236.34 C30.54 -233.6, 32.06 -226.98, 31.99 -221.71 C31.91 -216.44, 33 -207.92, 31.4 -204.7 C29.8 -201.47, 24.95 -202.33, 22.38 -202.36 C19.81 -202.4, 17.34 -201.82, 16 -204.9 C14.65 -207.98, 14.44 -215.55, 14.31 -220.82 C14.19 -226.09, 16.63 -233.6, 15.24 -236.53 C13.84 -239.45, 8.41 -238.62, 5.93 -238.36 C3.45 -238.09, 1.58 -238.69, 0.36 -234.96 C-0.86 -231.22, -1.02 -223.35, -1.38 -215.93 C-1.73 -208.51, -1.83 -194.7, -1.76 -190.42 M-1.94 -189.73 C-1.97 -186.73, 0.17 -175.01, 0.39 -169.64 C0.62 -164.26, -3.01 -160.03, -0.6 -157.47 C1.8 -154.91, 7.17 -154.87, 14.83 -154.26 C22.49 -153.64, 36.21 -153.91, 45.36 -153.78 C54.51 -153.66, 63.52 -153.01, 69.74 -153.5 C75.96 -154, 80.4 -153.74, 82.66 -156.77 C84.92 -159.81, 83.74 -166.3, 83.28 -171.7 C82.82 -177.1, 80.81 -184.66, 79.91 -189.17 C79 -193.68, 78.98 -196.17, 77.85 -198.75 C76.71 -201.33, 75.98 -203.51, 73.07 -204.68 C70.17 -205.85, 64.6 -205.75, 60.43 -205.75 C56.25 -205.75, 50.38 -202.36, 48.03 -204.68 C45.68 -207, 46.3 -214.71, 46.33 -219.66 C46.37 -224.62, 49.1 -231.01, 48.23 -234.39 C47.37 -237.77, 44.05 -239.73, 41.12 -239.94 C38.19 -240.14, 32.33 -238.62, 30.66 -235.62 C29 -232.62, 31.14 -227.21, 31.13 -221.93 C31.12 -216.65, 32.01 -206.99, 30.6 -203.94 C29.18 -200.88, 25.21 -203.33, 22.64 -203.6 C20.07 -203.87, 16.56 -202.44, 15.18 -205.55 C13.8 -208.66, 14.24 -217.48, 14.35 -222.25 C14.45 -227.03, 16.97 -231.38, 15.79 -234.18 C14.61 -236.99, 10.09 -239.05, 7.26 -239.08 C4.44 -239.11, 0.08 -238.17, -1.17 -234.35 C-2.42 -230.54, -0.33 -223.93, -0.24 -216.17 C-0.16 -208.41, -0.79 -192.38, -0.67 -187.81" stroke="#000000" stroke-width="1" fill="none"></path></g></g><g stroke-linecap="round"><g transform="translate(720.3434302246715 210.4564314138116) rotate(0 7.8197579401944495 -12.880676374930658)" fill-rule="evenodd"><path d="M-1.47 -16.2 L3.66 -19.83 L5.22 -19.75 L9.42 -19.46 L16.93 -20.39 L17.38 -5.34 L6.93 -5.75 L0.95 -4.65 L-1.43 -17.82" stroke="none" stroke-width="0" fill="#ffff" fill-rule="evenodd"></path><path d="M0.37 -17.84 C0.55 -18.52, 1 -20.02, 1.89 -20.62 C2.78 -21.21, 4.24 -21.25, 5.73 -21.42 C7.21 -21.59, 9.19 -22.02, 10.81 -21.66 C12.44 -21.3, 14.73 -20.46, 15.48 -19.25 C16.23 -18.03, 15.26 -15.73, 15.3 -14.4 C15.35 -13.07, 15.8 -12.63, 15.76 -11.27 C15.72 -9.9, 15.81 -7.38, 15.04 -6.2 C14.28 -5.03, 12.95 -4.57, 11.16 -4.23 C9.36 -3.88, 6.12 -3.9, 4.28 -4.12 C2.44 -4.34, 0.9 -4.37, 0.13 -5.56 C-0.65 -6.74, -0.54 -9.29, -0.39 -11.22 C-0.23 -13.15, 0.83 -16.33, 1.05 -17.13 M-0.89 -15.74 C-0.93 -16.31, 0.04 -18.64, 1.05 -19.39 C2.06 -20.14, 3.55 -20.04, 5.18 -20.26 C6.81 -20.48, 9.33 -21.01, 10.81 -20.74 C12.3 -20.46, 13.2 -19.58, 14.09 -18.63 C14.98 -17.68, 15.83 -16.58, 16.16 -15.04 C16.49 -13.5, 15.88 -10.78, 16.08 -9.37 C16.28 -7.95, 17.91 -7.23, 17.36 -6.54 C16.81 -5.85, 14.92 -5.6, 12.78 -5.2 C10.65 -4.8, 6.69 -3.72, 4.54 -4.14 C2.39 -4.57, 0.39 -6.46, -0.12 -7.75 C-0.63 -9.05, 1.75 -10.18, 1.46 -11.9 C1.18 -13.63, -1.71 -17.46, -1.82 -18.1" stroke="#000000" stroke-width="1" fill="none"></path></g></g><g stroke-linecap="round"><g stroke-opacity="0.6" fill-opacity="0.6" transform="translate(695.2173913043498 301.67691899574936) rotate(0 -0.6866583018158963 -37.66072219687149)"><path d="M-0.41 -1.03 C-1.44 -26.7, 0.71 -55.33, -1.6 -75.06 M0.22 0.65 C-0.6 -15.6, -1.27 -31.36, -1.09 -75.97" stroke="#000000" stroke-width="1" fill="none"></path></g><g stroke-opacity="0.6" fill-opacity="0.6" transform="translate(695.2173913043498 301.67691899574936) rotate(0 -0.6866583018158963 -37.66072219687149)"><path d="M8.8 -48.82 C4.59 -57.24, 3.45 -68.65, -1.38 -75.81 M9.43 -47.15 C6.67 -53.62, 4.13 -59.66, -0.88 -76.72" stroke="#000000" stroke-width="1" fill="none"></path></g><g stroke-opacity="0.6" fill-opacity="0.6" transform="translate(695.2173913043498 301.67691899574936) rotate(0 -0.6866583018158963 -37.66072219687149)"><path d="M-11.72 -48.79 C-8.42 -57.32, -2.05 -68.75, -1.38 -75.81 M-11.09 -47.12 C-9.6 -53.68, -7.9 -59.73, -0.88 -76.72" stroke="#000000" stroke-width="1" fill="none"></path></g></g><g stroke-linecap="round"><g stroke-opacity="0.6" fill-opacity="0.6" transform="translate(666.9565217391319 202.11170160444502) rotate(0 -72.74119147087413 0.32429660429534124)"><path d="M-0.91 -0.08 C-51.06 0.89, -98.25 0.32, -144.5 -0.42 M-0.77 0.65 C-31.43 1.02, -61.99 0.34, -144.72 1.07" stroke="#000000" stroke-width="1" fill="none"></path></g><g stroke-opacity="0.6" fill-opacity="0.6" transform="translate(666.9565217391319 202.11170160444502) rotate(0 -72.74119147087413 0.32429660429534124)"><path d="M-117.49 -9.43 C-127.93 -6.09, -135.42 -3.53, -145.3 -0.66 M-117.35 -8.7 C-123.39 -6.83, -129.36 -5.58, -145.52 0.84" stroke="#000000" stroke-width="1" fill="none"></path></g><g stroke-opacity="0.6" fill-opacity="0.6" transform="translate(666.9565217391319 202.11170160444502) rotate(0 -72.74119147087413 0.32429660429534124)"><path d="M-117.38 11.09 C-127.9 7.4, -135.43 2.92, -145.3 -0.66 M-117.24 11.82 C-123.36 9.33, -129.35 6.23, -145.52 0.84" stroke="#000000" stroke-width="1" fill="none"></path></g></g><g stroke-linecap="round"><g stroke-opacity="0.6" fill-opacity="0.6" transform="translate(724.3478260869588 222.98126682183639) rotate(0 0.2956296371035023 38.96761669129455)"><path d="M-0.47 -0.71 C0.5 16.74, 0.51 34.15, 0.86 78.64 M0.18 -0.22 C0.87 27.45, 1.35 54.14, 0.86 77.95" stroke="#000000" stroke-width="1" fill="none"></path></g><g stroke-opacity="0.6" fill-opacity="0.6" transform="translate(724.3478260869588 222.98126682183639) rotate(0 0.2956296371035023 38.96761669129455)"><path d="M-9.61 48.96 C-6.39 55.66, -4.51 62.25, 0.42 77.9 M-8.97 49.45 C-5.17 59.47, -1.64 68.51, 0.42 77.2" stroke="#000000" stroke-width="1" fill="none"></path></g><g stroke-opacity="0.6" fill-opacity="0.6" transform="translate(724.3478260869588 222.98126682183639) rotate(0 0.2956296371035023 38.96761669129455)"><path d="M10.91 49.15 C9.73 55.64, 7.2 62.19, 0.42 77.9 M11.55 49.63 C8.17 59.59, 4.51 68.57, 0.42 77.2" stroke="#000000" stroke-width="1" fill="none"></path></g></g><g stroke-linecap="round"><g stroke-opacity="0.6" fill-opacity="0.6" transform="translate(196.52173913043498 205.5899624740102) rotate(0 53.468254639666156 -1.4415129819560946)"><path d="M-0.88 -0.18 C30.78 -0.59, 56.9 -1.38, 107.56 -1.29 M0.47 0.18 C43.14 -0.89, 84.82 -2.16, 107.81 -3.06" stroke="#000000" stroke-width="1" fill="none"></path></g><g stroke-opacity="0.6" fill-opacity="0.6" transform="translate(196.52173913043498 205.5899624740102) rotate(0 53.468254639666156 -1.4415129819560946)"><path d="M79.13 8.01 C88.91 5.09, 93.21 2.08, 107.11 -1.31 M80.47 8.37 C91.8 3.74, 102.07 -0.73, 107.37 -3.07" stroke="#000000" stroke-width="1" fill="none"></path></g><g stroke-opacity="0.6" fill-opacity="0.6" transform="translate(196.52173913043498 205.5899624740102) rotate(0 53.468254639666156 -1.4415129819560946)"><path d="M78.4 -12.5 C88.5 -9.85, 92.99 -7.3, 107.11 -1.31 M79.74 -12.14 C91.18 -8.75, 101.73 -5.22, 107.37 -3.07" stroke="#000000" stroke-width="1" fill="none"></path></g></g><g stroke-linecap="round" transform="translate(660.42609639885 10) rotate(0 45.98420092678634 19.91238675986044)"><path d="M44.54 -0.12 L90.12 18.5 L44.29 41.29 L0.37 18.49" stroke="none" stroke-width="0" fill="#c13b3c" fill-rule="evenodd"></path><path d="M45.52 1.58 C59.29 6.89, 73.74 9.76, 92.31 18.33 M45.58 0.76 C59.15 5.29, 72.18 10.63, 91.87 20.17 M90.95 19.45 C75.71 27.43, 55.33 35.73, 47.41 38.58 M92.37 20.01 C82.31 24.73, 70.72 29.19, 45.53 39.34 M45.69 41.65 C33.28 32.56, 17.68 25.89, -1.41 20.59 M45.24 39.93 C30.1 33.49, 13.65 25.34, 0.52 20.82 M-0.78 21.44 C12.44 16.13, 25.25 8.49, 47.32 1.07 M0.36 19.91 C13.38 15.49, 24.72 9.81, 45.86 0.3" stroke="#c13b3c" stroke-width="2" fill="none"></path></g><g stroke-linecap="round" transform="translate(661.4181202775817 45.9150808198786) rotate(0 45.98420092678634 19.91238675986044)"><path d="M45.88 -1.85 L90.47 18.29 L47.47 40.2 L-1.51 21.23" stroke="none" stroke-width="0" fill="#c13b3c" fill-rule="evenodd"></path><path d="M47.58 0.4 C58.73 7.06, 67.62 10.6, 90.3 19.81 M46.76 -0.26 C61.21 6.29, 76.08 13.44, 92.14 20.88 M91.42 21.61 C78.37 24.65, 65.5 32.79, 44.75 38.47 M91.98 20.9 C75.88 27.16, 59.55 33.67, 45.51 39.96 M47.82 41.46 C33.37 34.94, 20.71 27.82, 0.59 20.96 M46.11 39.75 C37.11 34.92, 26.49 31.91, 0.82 19.61 M1.44 20.39 C14.25 15.8, 24.66 10.34, 47.07 -0.65 M-0.09 20.95 C11.5 15.19, 21.82 10.43, 46.3 -0.73" stroke="#c13b3c" stroke-width="2" fill="none"></path></g><g stroke-linecap="round" transform="translate(660.6991985926361 27.3170876038256) rotate(0 45.98420092678634 19.91238675986044)"><path d="M44.15 -1.5 L90.25 21.47 L46.37 38.32 L1.23 21.31" stroke="none" stroke-width="0" fill="#c13b3c" fill-rule="evenodd"></path><path d="M46.4 1.12 C60.38 3.44, 71.4 8.89, 91.77 20.67 M45.74 -0.25 C61.81 6.1, 78.75 14.15, 92.85 19.93 M93.58 19.99 C79.8 25.27, 70.99 28.24, 44.64 40.87 M92.87 20.09 C77.85 26.07, 63.21 31.75, 46.14 39.48 M47.63 39.21 C37.09 35.13, 25.83 32.73, 0.96 18.08 M45.92 40.33 C31.27 32.94, 17.92 28.3, -0.39 19.79 M0.39 21.48 C16.33 12.18, 31.51 7.65, 45.35 -1.37 M0.95 20.85 C13.88 14.49, 27.73 8.2, 45.27 -0.06" stroke="#c13b3c" stroke-width="2" fill="none"></path></g><g stroke-linecap="round"><g transform="translate(757.3008404263774 24.887836630669085) rotate(0 -34.346748388482865 5.186341762007714)" fill-rule="evenodd"><path d="M-40.15 4.85 C-40.15 4.85, -40.15 4.85, -40.15 4.85 M-40.15 4.85 C-40.15 4.85, -40.15 4.85, -40.15 4.85 M-32.06 9.02 C-30.41 6.82, -30.17 4.62, -26.34 2.58 M-33.12 8.16 C-31.91 7.31, -30.54 5.98, -26.59 1.92 M-40.33 5.23 C-40.33 5.23, -40.33 5.23, -40.33 5.23 M-40.33 5.23 C-40.33 5.23, -40.33 5.23, -40.33 5.23 M-26.66 6.94 C-27.16 5.3, -29.63 4, -31.47 2.22 M-26.2 6.71 C-28.16 5.58, -30.22 3.57, -32.23 1.97" stroke="#9a2e20" stroke-width="1" fill="none"></path><path d="M-27.88 0.94 C-29.2 2.95, -29.2 5.46, -28.1 10.66 M-28.56 -0.29 C-28.72 2.55, -28.28 5.65, -28.48 9.79 M-28.45 9.48 C-31.02 9.86, -35.2 6.84, -39.74 5.27 M-28.38 10.07 C-32.55 8.2, -36.9 6.93, -40.64 4.54 M-40.82 5.45 C-37.75 2.67, -33.27 2.75, -29.7 0.16 M-40.08 4.83 C-38.22 4.35, -34.53 2.61, -28.58 0.18 M-28.44 0 C-28.44 0, -28.44 0, -28.44 0 M-28.44 0 C-28.44 0, -28.44 0, -28.44 0" stroke="#9a2e20" stroke-width="2" fill="none"></path></g></g><g stroke-linecap="round"><g transform="translate(728.9249357129647 25.514780743643797) rotate(0 5.552940094894893 4.4182990660310395)" fill-rule="evenodd"><path d="M0 0 C0 0, 0 0, 0 0 M0 0 C0 0, 0 0, 0 0 M1.93 11.49 C3.81 7.28, 5.7 5.72, 8.88 2.01 M0.97 10.26 C4.08 7.59, 6.66 5.11, 8.14 2.87 M-0.13 9.3 C-0.13 9.3, -0.13 9.3, -0.13 9.3 M-0.13 9.3 C-0.13 9.3, -0.13 9.3, -0.13 9.3 M7.98 6.3 C5.6 3.32, 3.64 3.18, 1.09 -0.35 M7.69 5.72 C6.3 3.65, 3.7 1.69, 0.77 -1.11" stroke="#571f1e" stroke-width="1" fill="none"></path><path d="M0.88 -0.78 C0.18 2.78, -0.07 7.45, 0.55 9.02 M-0.27 -0.33 C-0.07 3.62, 0.39 7.05, -0.27 9.18 M-0.57 9.78 C3.93 7.38, 5.34 7.53, 11.5 5.27 M-0.01 9.38 C3.09 7.71, 6.9 6.4, 10.8 4.68 M11.67 4.12 C6.03 3.24, 3.04 -0.18, 0.15 -0.94 M11.08 4.32 C8.18 3.86, 4.08 1.74, 0.17 -0.24 M0 0 C0 0, 0 0, 0 0 M0 0 C0 0, 0 0, 0 0" stroke="#571f1e" stroke-width="2" fill="none"></path></g></g><g stroke-linecap="round"><g transform="translate(710.6254121553366 20.169955455854193) rotate(0 -2.831796933543501 2.5298841072021077)" fill-rule="evenodd"><path d="M-7.81 -2.16 L-5.49 -0.5 L-10.83 4.29 L-4.2 4.14 L-2.46 6.75 L0.47 2.19 L6.06 2.72 L-0.76 -0.05 L1.57 -1 L-3.8 -2.45 L-6.92 -0.62" stroke="none" stroke-width="0" fill="#ffff" fill-rule="evenodd"></path><path d="M-8.66 -1.77 C-8.13 -1.02, -7.24 0.04, -6.9 1.06 M-8.52 -1.84 C-7.94 -0.95, -7.53 -0.45, -6.85 0.78 M-6.6 1.21 C-9.08 1.2, -10.42 2.4, -11.72 2.87 M-6.78 0.69 C-8.92 1.66, -10.9 2.15, -11.99 3.12 M-12.29 2.41 C-9.3 3.41, -7.66 3.43, -6.01 3.58 M-12.18 3.03 C-9.8 2.96, -8.25 3.37, -5.65 3.75 M-5.73 3.81 C-4.53 4.59, -4.36 5.99, -3.12 7.35 M-5.4 3.48 C-4.53 4.88, -3.73 6.37, -3.45 7.2 M-3 7.69 C-2.3 5.68, -1.76 4.24, -1.39 3.33 M-3.29 7.6 C-2.65 5.81, -1.66 4.21, -1.19 3.51 M-0.4 3.39 C0.56 2.88, 3.41 3.68, 5.47 3.45 M-1.3 3.45 C0.85 3.41, 3.17 3.24, 6.1 2.66 M6.62 2.19 C4.73 2.64, 3.25 2.54, -0.48 0.75 M6.26 2.52 C4.5 2.2, 2.93 2.35, -0.6 0.83 M-0.24 0.73 C-0.08 -0.34, 1.22 -0.94, 1.89 -2.58 M-0.49 1.13 C-0.03 0.25, 0.44 -0.45, 1.57 -2.39 M1.44 -2.18 C0.86 -2.16, -0.22 -2.16, -3.84 -0.5 M1.99 -2.63 C0.14 -1.8, -1.54 -0.97, -3.2 -0.65 M-3.28 -0.27 C-4.15 -1.3, -5.78 -0.66, -8.92 -1.3 M-3.43 -0.7 C-4.23 -0.68, -5.37 -1.22, -8.42 -1.78 M-8.41 -1.82 C-8.41 -1.82, -8.41 -1.82, -8.41 -1.82 M-8.41 -1.82 C-8.41 -1.82, -8.41 -1.82, -8.41 -1.82" stroke="#ffff" stroke-width="2" fill="none"></path></g></g><g stroke-linecap="round" transform="translate(676.4994567731019 27.453611890664973) rotate(0 9.696466596105893 3.0256600291790647)"><path d="M7.43 0.78 C9.41 0.7, 12.58 1, 14.57 1.12 C16.55 1.23, 18.51 0.89, 19.34 1.46 C20.16 2.03, 20.36 3.96, 19.53 4.54 C18.71 5.12, 16.27 4.62, 14.39 4.93 C12.51 5.24, 10.26 6.2, 8.24 6.37 C6.23 6.55, 3.53 6.51, 2.3 5.96 C1.07 5.41, 0.79 3.9, 0.85 3.07 C0.92 2.24, 1.02 1.62, 2.67 0.99 C4.32 0.36, 9.06 -0.44, 10.77 -0.72 C12.48 -1, 13.12 -0.71, 12.93 -0.68 M14.1 1.18 C16.04 1.43, 17.94 0.49, 18.74 0.8 C19.54 1.11, 19.53 2.31, 18.88 3.04 C18.24 3.78, 16.23 4.51, 14.87 5.2 C13.5 5.89, 12.5 7.15, 10.71 7.16 C8.93 7.17, 5.69 6.05, 4.15 5.25 C2.61 4.46, 2.01 3.04, 1.49 2.4 C0.98 1.76, 0.35 1.88, 1.06 1.42 C1.76 0.96, 3.57 -0.12, 5.73 -0.37 C7.89 -0.62, 12.58 -0.33, 14.02 -0.11 C15.45 0.12, 14.3 0.88, 14.35 0.98" stroke="none" stroke-width="0" fill="#ffffff"></path><path d="M6.34 -0.16 C8.24 -0.54, 11.28 -0.3, 13.14 -0.14 C15 0.01, 16.58 0.2, 17.49 0.76 C18.41 1.33, 18.78 2.36, 18.63 3.24 C18.48 4.13, 17.99 5.72, 16.6 6.09 C15.21 6.46, 12.48 5.62, 10.3 5.47 C8.11 5.32, 5.01 5.48, 3.48 5.2 C1.95 4.91, 1.58 4.29, 1.09 3.75 C0.6 3.22, -0.53 2.7, 0.52 1.99 C1.58 1.29, 6.33 -0.25, 7.43 -0.48 C8.52 -0.7, 7.14 0.43, 7.08 0.64 M9.73 -0.08 C11.36 -0.26, 13.63 -0.36, 15.25 -0.01 C16.87 0.33, 19.23 1.27, 19.46 2 C19.69 2.72, 17.49 3.47, 16.63 4.32 C15.78 5.17, 16.13 6.78, 14.34 7.1 C12.54 7.41, 8.19 6.81, 5.88 6.2 C3.57 5.6, 1.36 3.97, 0.48 3.47 C-0.4 2.97, 0.33 3.64, 0.6 3.21 C0.86 2.78, 0.72 1.39, 2.06 0.89 C3.39 0.38, 7.33 0.17, 8.6 0.16 C9.86 0.15, 9.56 0.98, 9.63 0.82" stroke="#ffff" stroke-width="2" fill="none"></path></g><g stroke-linecap="round"><g transform="translate(756.8443289152319 25.22682346201421) rotate(0 -34.03399501588456 5.03221135195254)" fill-rule="evenodd"><path d="M-29.95 1.23 L-27.13 10.82 L-41.43 4.71 L-29.19 -1.24" stroke="none" stroke-width="0" fill="#9a2e20" fill-rule="evenodd"></path><path d="M-29.28 -0.1 C-28.19 4.55, -28.95 8.7, -28.71 9.83 M-28.35 0.45 C-28.55 2.15, -28.77 4.75, -28.03 10.07 M-29.25 9.2 C-30.82 9.02, -34.02 7.67, -39.24 5.27 M-28.76 10.16 C-32.24 7.93, -35.7 7.67, -39.89 4.96 M-40.03 5.79 C-37.78 3.74, -33.66 2.05, -28.54 0.66 M-39.88 4.9 C-37.53 3.99, -34.67 3, -28.31 0.48 M-28.44 0 C-28.44 0, -28.44 0, -28.44 0 M-28.44 0 C-28.44 0, -28.44 0, -28.44 0" stroke="#9a2e20" stroke-width="2" fill="none"></path></g></g><g stroke-linecap="round"><g transform="translate(729.0126409977775 25.566773478812678) rotate(0 5.5773581232119795 4.715201726264837)" fill-rule="evenodd"><path d="M1.23 1.31 L0.74 8.41 L10.95 4.03 L-1.24 -0.24" stroke="none" stroke-width="0" fill="#571f1e" fill-rule="evenodd"></path><path d="M-0.09 0.32 C0.56 1.65, 0.73 3.84, -0.23 8.88 M0.42 -0.03 C-0.28 1.92, -0.14 4.69, 0 9.2 M-0.83 10.06 C3.83 8.45, 7.49 7.54, 11.5 4.76 M0.08 9.2 C2.79 8.01, 7.3 7.24, 11.21 4.92 M11.99 3.59 C8.77 2.69, 5.93 2.36, 0.63 -0.63 M11.15 4.65 C8.96 3.55, 6.66 2.83, 0.46 0.37 M0 0 C0 0, 0 0, 0 0 M0 0 C0 0, 0 0, 0 0" stroke="#571f1e" stroke-width="2" fill="none"></path></g></g><g stroke-linecap="round"><g transform="translate(738.575054408906 61.045879757695445) rotate(0 -32.848131526614 -22.016796188318153)" fill-rule="evenodd"><path d="M-28.25 -17.56 L-43.01 -23.78 L-23.89 -27.24 L-29.8 -16.71" stroke="none" stroke-width="0" fill="#ffffff" fill-rule="evenodd"></path><path d="M-29.11 -17.52 C-34.02 -18.89, -37.76 -21.84, -42.77 -24.29 M-29.6 -18.69 C-33.52 -19.84, -36.24 -21.11, -42.31 -23.14 M-41.01 -23.18 C-34.24 -24.18, -26.29 -25.02, -23.16 -26.11 M-42.33 -24.25 C-37.38 -23.17, -31.68 -25, -22.92 -26.51 M-24.1 -25.88 C-25.36 -24.1, -26.14 -21.93, -30.07 -19.04 M-23.24 -25.87 C-25.53 -22.96, -27.49 -20.24, -29.26 -18.54 M-29.56 -18.3 C-29.56 -18.3, -29.56 -18.3, -29.56 -18.3 M-29.56 -18.3 C-29.56 -18.3, -29.56 -18.3, -29.56 -18.3" stroke="#ffffff" stroke-width="2" fill="none"></path></g></g><g stroke-linecap="round"><g transform="translate(661.1841610694883 31.878826590073572) rotate(0 45.85082803945215 14.408834819899923)" fill-rule="evenodd"><path d="M-1.62 -1.43 L1.9 11.78 L46.98 30.8 L90.27 10.08 L90.35 -1 L47.45 18.3 L0.2 -1.08" stroke="none" stroke-width="0" fill="#922b1c" fill-rule="evenodd"></path><path d="M0.64 -0.7 C0.92 1.86, -0.1 3.9, -0.36 10.67 M-0.32 -0.52 C0.08 3.7, 0.36 6.5, 0.59 11.17 M0.59 11.58 C11.21 17.1, 22.28 20.03, 46.22 29.83 M-0.54 10.62 C12.9 16.78, 23.22 21.22, 45.8 30.08 M46.58 29.25 C61.48 24.55, 77.32 17.16, 90.51 12.01 M46.6 30.39 C64.56 23.51, 82.02 16.35, 91.52 11.64 M92.03 11.38 C91.97 8.05, 93.09 2.96, 92.73 -0.5 M91.47 10.56 C91.63 7.66, 92.27 3.08, 92.48 0.03 M91.38 -1.57 C76.21 7.75, 62.34 13.85, 45.84 21.05 M91.59 -0.69 C82.17 3.87, 71.96 9, 46.87 19.23 M47.65 17.27 C36.24 14.17, 21.65 7.91, -1.09 0.13 M46.17 19 C32.4 13.03, 19.84 8.58, 0.65 -1.18 M0 -0.24 C0 -0.24, 0 -0.24, 0 -0.24 M0 -0.24 C0 -0.24, 0 -0.24, 0 -0.24" stroke="#922b1c" stroke-width="2" fill="none"></path></g></g><g stroke-linecap="round"><g transform="translate(661.1951366747098 48.337284180195695) rotate(0 46.038720608014046 15.461115657163717)" fill-rule="evenodd"><path d="M-1.19 1.24 L1.42 11.44 L46.35 29.06 L91.09 9.19 L91.47 1.2 L44.99 19.43 L-0.85 0.5" stroke="none" stroke-width="0" fill="#922b1c" fill-rule="evenodd"></path><path d="M-0.46 0.6 C-0.13 2.69, -0.35 5.37, 0.31 10.97 M-0.28 -0.39 C0.6 4.04, 0.07 8.49, 0.81 10.44 M1.23 10.8 C12.99 15.56, 21.82 19.93, 45.38 29.81 M0.27 11.69 C15.56 17.18, 29.36 23.23, 45.62 31.08 M44.8 31 C62.27 24.84, 77.3 15.46, 93.02 12.62 M45.94 31.5 C58.48 26.23, 70.81 19.85, 92.65 11.51 M92.4 10.87 C93.18 8.92, 92.13 5.52, 91.97 0 M91.57 10.49 C92.44 8.52, 91.63 6.19, 92.5 -0.13 M90.9 -0.58 C82.15 5.85, 70.12 9.17, 47.74 17.75 M91.78 0.22 C79.08 5.67, 66.93 11.24, 45.92 18.72 M43.96 20.92 C33.52 13.18, 20.33 8.54, 0.36 -0.58 M45.68 18.76 C29.66 12.89, 15.59 7.17, -0.94 -0.43 M0 -0.24 C0 -0.24, 0 -0.24, 0 -0.24 M0 -0.24 C0 -0.24, 0 -0.24, 0 -0.24" stroke="#922b1c" stroke-width="2" fill="none"></path></g></g><g stroke-linecap="round"><g transform="translate(661.631470383245 66.58814118043372) rotate(0 46.60064323096731 14.797772876419316)" fill-rule="evenodd"><path d="M1.48 0.76 L1.08 9.54 L44.66 29.35 L90.12 9.91 L93.67 -1.26 L46.11 18.38 L0.74 -1.99" stroke="none" stroke-width="0" fill="#922b1c" fill-rule="evenodd"></path><path d="M0.74 -0.49 C-0.04 2.46, -0.35 6.18, 0.59 10.38 M-0.13 0.15 C0.07 2.4, 0.34 5.83, 0.12 9.19 M0.44 11.33 C16.8 16.61, 32.71 22.99, 45.41 30.52 M1.33 10.34 C12.12 15.32, 24.09 19.89, 46.68 30.73 M46.6 30.1 C56.65 25.57, 63.44 23.61, 93.55 9.79 M47.11 30.44 C59.77 25.53, 71.25 20.11, 92.44 10.24 M91.8 11.6 C92.89 8.02, 92.58 5.36, 92.46 -1.14 M91.44 10.97 C92.18 6.95, 92.48 4.51, 92.33 -0.61 M91.89 1.25 C80.69 5.91, 66.3 12.08, 44.44 18.78 M92.69 -0.55 C79.13 5.79, 65.55 11.12, 45.4 18.79 M47.61 18.74 C27.69 9.84, 11.42 5.05, -0.34 0.35 M45.44 18.22 C28.91 12, 12.7 3.85, -0.2 0.02 M0 -0.24 C0 -0.24, 0 -0.24, 0 -0.24 M0 -0.24 C0 -0.24, 0 -0.24, 0 -0.24" stroke="#922b1c" stroke-width="2" fill="none"></path></g></g><g stroke-linecap="round"><g stroke-opacity="0.6" fill-opacity="0.6" transform="translate(516.5217391304341 156.45952769140163) rotate(0 71.42338259220514 -49.305658265057474)"><path d="M1.33 1.17 C34.45 -26.33, 72.82 -51.33, 142.4 -99.78 M0.44 0.51 C48.44 -32.82, 97.8 -66.05, 141.33 -98.49" stroke="#000000" stroke-width="1" fill="none"></path></g><g stroke-opacity="0.6" fill-opacity="0.6" transform="translate(516.5217391304341 156.45952769140163) rotate(0 71.42338259220514 -49.305658265057474)"><path d="M125.85 -72.47 C126.89 -81.11, 132.89 -86.84, 142.87 -99.58 M124.97 -73.13 C129.55 -82.06, 136.17 -89.85, 141.79 -98.28" stroke="#000000" stroke-width="1" fill="none"></path></g><g stroke-opacity="0.6" fill-opacity="0.6" transform="translate(516.5217391304341 156.45952769140163) rotate(0 71.42338259220514 -49.305658265057474)"><path d="M113.81 -89.08 C118.05 -93.36, 127.2 -94.75, 142.87 -99.58 M112.92 -89.75 C121.5 -92.85, 132.28 -94.92, 141.79 -98.28" stroke="#000000" stroke-width="1" fill="none"></path></g></g><g stroke-linecap="round"><g stroke-opacity="0.6" fill-opacity="0.6" transform="translate(189.52898550724422 163.05373058995227) rotate(0 66.66727011169587 -26.53430232871324)"><path d="M1.9 -0.95 C53.78 -18.48, 103.42 -41.23, 133.93 -52.32 M-0.59 0.24 C48.61 -19.76, 96.9 -39.39, 133.22 -53.31" stroke="#000000" stroke-width="1" fill="none"></path></g><g stroke-opacity="0.6" fill-opacity="0.6" transform="translate(189.52898550724422 163.05373058995227) rotate(0 66.66727011169587 -26.53430232871324)"><path d="M112.6 -34.44 C121 -39.44, 127.46 -49.55, 132.98 -53.13 M110.11 -33.25 C118.61 -41.06, 126.27 -48.8, 132.28 -54.12" stroke="#000000" stroke-width="1" fill="none"></path></g><g stroke-opacity="0.6" fill-opacity="0.6" transform="translate(189.52898550724422 163.05373058995227) rotate(0 66.66727011169587 -26.53430232871324)"><path d="M105.13 -53.56 C116.24 -51.16, 125.6 -53.87, 132.98 -53.13 M102.64 -52.36 C113.82 -53.24, 124.2 -54.02, 132.28 -54.12" stroke="#000000" stroke-width="1" fill="none"></path></g></g></svg>